# xmcd CD database file
#
# Track frame offsets:
#	150
#	14620
#	28276
#	42837
#	54552
#	65772
#	79719
#	93352
#	105084
#	117062
#
# Disc length: 1705 seconds
#
# Revision: 0
# Processed by: cddbd v1.4PL0 Copyright (c) Steve Scherf et al.
# Submitted via: CDex 1.50Beta6
#
DISCID=7906a70a
DTITLE=Tommy Allsup - A Fool Such As I
DYEAR=1900
DGENRE=Country
TTITLE0=A Fool Such As I 01
TTITLE1=Almost Persuaded 02
TTITLE2=You Belong To Me 03
TTITLE3=It's Such A Pretty World Today 04
TTITLE4=Tennessee Waltz 05
TTITLE5=Fraulein 06
TTITLE6=Funny How Time Slips Away 07
TTITLE7=Stand By Your Man 08
TTITLE8=Coconut Grove09
TTITLE9=Swinging To The Beat10
EXTD=
EXTT0=
EXTT1=
EXTT2=
EXTT3=
EXTT4=
EXTT5=
EXTT6=
EXTT7=
EXTT8=
EXTT9=
PLAYORDER=
